<svg width="65" height="65" viewBox="0 0 2000 2000" fill="none" xmlns="http://www.w3.org/2000/svg">
<rect width="2000" height="2000" fill="#A285F2"/>
<path d="M1000 310.448C1117.57 310.448 1232.66 340.158 1345.27 399.579C1457.61 459.27 1545.72 544.35 1608.77 654.819C1672.09 765.558 1703.48 880.888 1703.48 1000.54C1703.48 1120.19 1672.37 1233.63 1610.42 1342.75C1548.19 1452.14 1461.46 1537.22 1349.68 1597.99C1237.89 1659.03 1121.42 1689.55 1000 1689.55C878.577 1689.55 761.284 1659.03 649.773 1597.99C538.538 1537.22 451.532 1452.14 389.581 1342.75C327.355 1233.63 296.518 1119.38 296.518 1000.54C296.518 881.698 327.906 765.828 390.683 654.819C453.459 544.35 541.291 459.27 653.628 399.579C765.965 340.158 881.606 310.448 1000 310.448ZM729.896 770.149C705.666 770.149 684.741 778.792 667.12 795.538C649.498 812.554 640.687 833.351 640.687 857.93C640.687 882.509 649.498 902.226 667.12 919.512C684.741 936.798 705.666 945.441 729.896 945.441C754.126 945.441 776.152 936.798 793.223 919.512C810.294 902.226 819.105 881.698 819.105 857.93C819.105 834.162 810.569 812.824 793.223 795.538C775.877 778.792 754.676 770.149 729.896 770.149ZM675.93 1222.29C712.55 1290.89 757.98 1343.02 811.671 1379.21C865.361 1415.14 928.138 1433.23 1000.28 1433.23C1072.41 1433.23 1134.36 1415.14 1188.33 1379.21C1242.3 1343.29 1287.73 1290.89 1324.62 1222.29L1255.24 1183.39C1197.97 1287.11 1112.89 1339.24 1000.55 1339.24C888.214 1339.24 802.86 1287.38 744.764 1183.39L676.481 1222.29H675.93ZM1269.28 770.149C1244.22 770.149 1223.02 778.792 1205.95 795.538C1188.61 812.554 1180.07 833.351 1180.07 857.93C1180.07 882.509 1188.88 902.226 1206.5 919.512C1224.12 936.798 1245.05 945.441 1269.28 945.441C1293.51 945.441 1315.53 936.798 1332.61 919.512C1349.68 902.226 1358.49 881.698 1358.49 857.93C1358.49 834.162 1349.95 812.824 1332.61 795.538C1315.26 778.792 1294.06 770.149 1269.28 770.149Z" fill="#FAFAFA"/>
</svg>
